REM DIRINDEX 1\2\4,1\2\5,1\2\6,1\3\7,1\3\8
REM DIRNAME cjc128,folder01,folder02,folder03,folder04,folder05,folder06,folder07
TITLE ""
FILE "032_Lesson 27_Output_Stage.mp3" MP3
  TRACK 01 AUDIO
    TITLE "0:"
    INDEX 01 00:00:00
  TRACK 02 AUDIO
    TITLE "8:cjc128_3730"
    INDEX 01 00:00:25
  TRACK 03 AUDIO
    TITLE "0:"
    INDEX 01 00:03:43
  TRACK 04 AUDIO
    TITLE "8:cjc128_3731"
    INDEX 01 00:04:07
  TRACK 05 AUDIO
    TITLE "0:"
    INDEX 01 00:06:04
  TRACK 06 AUDIO
    TITLE "7:cjc128_3732"
    INDEX 01 00:06:61
  TRACK 07 AUDIO
    TITLE "0:"
    INDEX 01 00:10:02
  TRACK 08 AUDIO
    TITLE "8:cjc128_3733"
    INDEX 01 00:14:07
  TRACK 09 AUDIO
    TITLE "0:"
    INDEX 01 00:15:50
  TRACK 10 AUDIO
    TITLE "7:cjc128_3734"
    INDEX 01 00:16:38
  TRACK 11 AUDIO
    TITLE "0:"
    INDEX 01 00:19:58
  TRACK 12 AUDIO
    TITLE "8:cjc128_3735"
    INDEX 01 00:23:61
  TRACK 13 AUDIO
    TITLE "0:"
    INDEX 01 00:25:54
  TRACK 14 AUDIO
    TITLE "7:cjc128_3736"
    INDEX 01 00:26:44
  TRACK 15 AUDIO
    TITLE "0:"
    INDEX 01 00:30:08
  TRACK 16 AUDIO
    TITLE "8:cjc128_3737"
    INDEX 01 00:34:22
  TRACK 17 AUDIO
    TITLE "0:"
    INDEX 01 00:36:11
  TRACK 18 AUDIO
    TITLE "7:cjc128_3738"
    INDEX 01 00:37:01
  TRACK 19 AUDIO
    TITLE "0:"
    INDEX 01 00:39:11
  TRACK 20 AUDIO
    TITLE "8:cjc128_3739"
    INDEX 01 00:41:73
  TRACK 21 AUDIO
    TITLE "0:"
    INDEX 01 00:43:66
  TRACK 22 AUDIO
    TITLE "7:cjc128_3740"
    INDEX 01 00:44:54
  TRACK 23 AUDIO
    TITLE "0:"
    INDEX 01 00:48:14
  TRACK 24 AUDIO
    TITLE "8:cjc128_3741"
    INDEX 01 00:52:51
  TRACK 25 AUDIO
    TITLE "0:"
    INDEX 01 00:54:42
  TRACK 26 AUDIO
    TITLE "7:cjc128_3742"
    INDEX 01 00:55:32
  TRACK 27 AUDIO
    TITLE "0:"
    INDEX 01 00:58:36
  TRACK 28 AUDIO
    TITLE "8:cjc128_3743"
    INDEX 01 01:02:16
  TRACK 29 AUDIO
    TITLE "0:"
    INDEX 01 01:04:31
  TRACK 30 AUDIO
    TITLE "7:cjc128_3744"
    INDEX 01 01:05:24
  TRACK 31 AUDIO
    TITLE "0:"
    INDEX 01 01:08:68
  TRACK 32 AUDIO
    TITLE "8:cjc128_3745"
    INDEX 01 01:13:47
  TRACK 33 AUDIO
    TITLE "0:"
    INDEX 01 01:15:40
  TRACK 34 AUDIO
    TITLE "7:cjc128_3746"
    INDEX 01 01:16:38
  TRACK 35 AUDIO
    TITLE "0:"
    INDEX 01 01:19:50
  TRACK 36 AUDIO
    TITLE "8:cjc128_3747"
    INDEX 01 01:23:30
  TRACK 37 AUDIO
    TITLE "0:"
    INDEX 01 01:25:25
  TRACK 38 AUDIO
    TITLE "7:cjc128_3748"
    INDEX 01 01:26:03
  TRACK 39 AUDIO
    TITLE "0:"
    INDEX 01 01:28:72
  TRACK 40 AUDIO
    TITLE "8:cjc128_3749"
    INDEX 01 01:32:41
  TRACK 41 AUDIO
    TITLE "0:"
    INDEX 01 01:34:28
  TRACK 42 AUDIO
    TITLE "7:cjc128_3750"
    INDEX 01 01:35:14
  TRACK 43 AUDIO
    TITLE "0:"
    INDEX 01 01:37:09
  TRACK 44 AUDIO
    TITLE "8:cjc128_3751"
    INDEX 01 01:39:47
  TRACK 45 AUDIO
    TITLE "0:"
    INDEX 01 01:41:42
  TRACK 46 AUDIO
    TITLE "7:cjc128_3752"
    INDEX 01 01:42:18
  TRACK 47 AUDIO
    TITLE "0:"
    INDEX 01 01:45:38
  TRACK 48 AUDIO
    TITLE "8:cjc128_3753"
    INDEX 01 01:49:32
  TRACK 49 AUDIO
    TITLE "0:"
    INDEX 01 01:51:01
  TRACK 50 AUDIO
    TITLE "7:cjc128_3754"
    INDEX 01 01:52:06
  TRACK 51 AUDIO
    TITLE "0:"
    INDEX 01 01:55:63
  TRACK 52 AUDIO
    TITLE "8:cjc128_3755"
    INDEX 01 02:00:06
  TRACK 53 AUDIO
    TITLE "0:"
    INDEX 01 02:01:72
  TRACK 54 AUDIO
    TITLE "7:cjc128_3756"
    INDEX 01 02:02:60
  TRACK 55 AUDIO
    TITLE "0:"
    INDEX 01 02:04:27
  TRACK 56 AUDIO
    TITLE "8:cjc128_3757"
    INDEX 01 02:06:50
  TRACK 57 AUDIO
    TITLE "0:"
    INDEX 01 02:08:45
  TRACK 58 AUDIO
    TITLE "7:cjc128_3758"
    INDEX 01 02:09:30
  TRACK 59 AUDIO
    TITLE "0:"
    INDEX 01 02:11:61
  TRACK 60 AUDIO
    TITLE "8:cjc128_3759"
    INDEX 01 02:14:73
  TRACK 61 AUDIO
    TITLE "0:"
    INDEX 01 02:16:70
  TRACK 62 AUDIO
    TITLE "7:cjc128_3760"
    INDEX 01 02:17:53
  TRACK 63 AUDIO
    TITLE "0:"
    INDEX 01 02:20:60
  TRACK 64 AUDIO
    TITLE "8:cjc128_3761"
    INDEX 01 02:24:32
  TRACK 65 AUDIO
    TITLE "0:"
    INDEX 01 02:26:27
  TRACK 66 AUDIO
    TITLE "7:cjc128_3762"
    INDEX 01 02:27:18
  TRACK 67 AUDIO
    TITLE "0:"
    INDEX 01 02:30:34
  TRACK 68 AUDIO
    TITLE "8:cjc128_3763"
    INDEX 01 02:34:17
  TRACK 69 AUDIO
    TITLE "0:"
    INDEX 01 02:36:23
  TRACK 70 AUDIO
    TITLE "7:cjc128_3764"
    INDEX 01 02:37:21
  TRACK 71 AUDIO
    TITLE "0:"
    INDEX 01 02:41:56
  TRACK 72 AUDIO
    TITLE "8:cjc128_3765"
    INDEX 01 02:47:15
  TRACK 73 AUDIO
    TITLE "0:"
    INDEX 01 02:49:16
  TRACK 74 AUDIO
    TITLE "7:cjc128_3766"
    INDEX 01 02:50:16
  TRACK 75 AUDIO
    TITLE "0:"
    INDEX 01 02:54:06
  TRACK 76 AUDIO
    TITLE "8:cjc128_3767"
    INDEX 01 02:58:27
  TRACK 77 AUDIO
    TITLE "0:"
    INDEX 01 03:00:24
  TRACK 78 AUDIO
    TITLE "7:cjc128_3768"
    INDEX 01 03:01:09
  TRACK 79 AUDIO
    TITLE "0:"
    INDEX 01 03:04:65
  TRACK 80 AUDIO
    TITLE "8:cjc128_3769"
    INDEX 01 03:09:50
  TRACK 81 AUDIO
    TITLE "0:"
    INDEX 01 03:11:35
  TRACK 82 AUDIO
    TITLE "7:cjc128_3770"
    INDEX 01 03:12:31
  TRACK 83 AUDIO
    TITLE "0:"
    INDEX 01 03:15:64
  TRACK 84 AUDIO
    TITLE "8:cjc128_3771"
    INDEX 01 03:19:72
  TRACK 85 AUDIO
    TITLE "0:"
    INDEX 01 03:21:67
  TRACK 86 AUDIO
    TITLE "7:cjc128_3772"
    INDEX 01 03:22:49
  TRACK 87 AUDIO
    TITLE "0:"
    INDEX 01 03:26:23
  TRACK 88 AUDIO
    TITLE "8:cjc128_3773"
    INDEX 01 03:30:70
  TRACK 89 AUDIO
    TITLE "0:"
    INDEX 01 03:32:47
  TRACK 90 AUDIO
    TITLE "7:cjc128_3774"
    INDEX 01 03:33:33
  TRACK 91 AUDIO
    TITLE "0:"
    INDEX 01 03:38:22
